<svg xmlns="http://www.w3.org/2000/svg" viewBox="0 21.700000762939453 137.9499969482422 40.79999923706055" data-asc="1.16" width="137.9499969482422" height="40.79999923706055"><defs/><g fill="#000000"><g transform="translate(0, 0)"><path d="M0 21.70L3.65 21.70L3.65 28.45L0 28.45L0 21.70M0 31.00L3.65 31.00L3.65 59.40L0 59.40L0 31.00ZM15.75 31.00L19.45 31.00L19.45 34.10L22 34.10L22 31.00L31.80 31.00L31.80 34.10L34.85 34.10L34.85 37.15L37.95 37.15L37.95 59.40L34.35 59.40L34.35 37.70L31.25 37.70L31.25 34.60L22.50 34.60L22.50 37.70L19.45 37.70L19.45 59.40L15.75 59.40L15.75 31.00ZM43.90 50.05L40.75 50.05L40.75 37.15L43.90 37.15L43.90 34.10L47 34.10L47 31.00L56.80 31.00L56.80 34.10L59.35 34.10L59.35 31.00L62.95 31.00L62.95 62.50L59.35 62.50L59.35 53.15L56.80 53.15L56.80 56.25L47 56.25L47 53.15L43.90 53.15L43.90 50.05M56.25 52.65L56.25 49.55L59.35 49.55L59.35 37.70L56.25 37.70L56.25 34.60L47.50 34.60L47.50 37.70L44.45 37.70L44.45 49.55L47.50 49.55L47.50 52.65L56.25 52.65ZM68.90 53.15L65.75 53.15L65.75 37.15L68.90 37.15L68.90 34.10L72 34.10L72 31.00L81.80 31.00L81.80 34.10L84.85 34.10L84.85 37.15L87.95 37.15L87.95 40.80L84.35 40.80L84.35 37.70L81.25 37.70L81.25 34.60L72.50 34.60L72.50 37.70L69.45 37.70L69.45 52.65L72.50 52.65L72.50 55.70L81.25 55.70L81.25 52.65L84.35 52.65L84.35 49.55L87.95 49.55L87.95 53.15L84.85 53.15L84.85 56.25L81.80 56.25L81.80 59.40L72 59.40L72 56.25L68.90 56.25L68.90 53.15ZM93.85 31.00L97.45 31.00L97.45 34.10L100 34.10L100 31.00L109.80 31.00L109.80 34.60L100.55 34.60L100.55 37.70L97.45 37.70L97.45 59.40L93.85 59.40L93.85 31.00ZM115.75 31.00L119.45 31.00L119.45 34.10L122 34.10L122 31.00L125.60 31.00L125.60 34.10L131.25 34.10L131.25 31.00L134.85 31.00L134.85 34.10L137.95 34.10L137.95 59.40L134.35 59.40L134.35 34.60L131.80 34.60L131.80 37.70L128.70 37.70L128.70 59.40L125.05 59.40L125.05 34.60L122.50 34.60L122.50 37.70L119.45 37.70L119.45 59.40L115.75 59.40L115.75 31.00Z"/></g></g></svg>